<?xml version="1.0" encoding="UTF-8"?> <svg xmlns="http://www.w3.org/2000/svg" width="103" height="50" viewBox="0 0 103 50" fill="none"><g clip-path="url(#clip0_214_680)"><path d="M102.5 0H92.5L81.25 11.25V21.25L92.5 32.5H102.5L86.875 15.625L102.5 0Z" fill="white"></path><path d="M78.75 0V32.5H71.25V0H78.75Z" fill="white"></path><path d="M14.3824 7.33871V32.5H22.0998V7.33871H34.0266L48.125 20L59.6344 9.08603V32.5H67.3518V0H59.6344L48.125 10.625L36.4823 0H6.66502L0 7.33871H14.3824Z" fill="white"></path><path d="M31.9219 32.5L31.875 13.125L38.75 19.375L38.587 32.5H31.9219Z" fill="white"></path><path d="M19.8958 48.75V38.8887H20.4973V48.1905H25.7566V48.75H19.8958Z" fill="white"></path><path d="M27.0596 40.0776V39.1824H27.9688V40.0776H27.0596ZM27.2134 48.75V41.9659H27.8149V48.75H27.2134Z" fill="white"></path><path d="M30.3013 48.75V41.9659H30.8888V43.6025H30.7629C30.8748 43.2295 31.038 42.9171 31.2525 42.6654C31.4763 42.4043 31.742 42.2038 32.0498 42.0639C32.3575 41.924 32.6979 41.854 33.0709 41.854C33.6864 41.854 34.1759 42.0033 34.5396 42.3016C34.9033 42.6 35.1364 43.0384 35.239 43.6165H35.0571C35.2156 43.085 35.5094 42.6606 35.9384 42.3436C36.3674 42.0173 36.8849 41.854 37.491 41.854C37.9946 41.854 38.4095 41.952 38.7359 42.1478C39.0716 42.3343 39.3234 42.6188 39.4913 43.001C39.6685 43.374 39.757 43.8496 39.757 44.4278V48.75H39.1416V44.4978C39.1416 43.789 39.0158 43.2668 38.7639 42.9311C38.5121 42.586 38.0831 42.4135 37.477 42.4135C37.0388 42.4135 36.6564 42.5161 36.33 42.7213C36.013 42.9264 35.7659 43.2155 35.5886 43.5885C35.4209 43.9523 35.3369 44.3765 35.3369 44.8614V48.75H34.7215V44.4978C34.7215 43.789 34.5909 43.2668 34.3298 42.9311C34.0686 42.586 33.6398 42.4135 33.0429 42.4135C32.614 42.4135 32.2363 42.5161 31.9099 42.7213C31.5929 42.9264 31.3458 43.2155 31.1685 43.5885C30.9914 43.9523 30.9028 44.3719 30.9028 44.8474V48.75H30.3013Z" fill="white"></path><path d="M42.0583 40.0776V39.1824H42.9676V40.0776H42.0583ZM42.2122 48.75V41.9659H42.8137V48.75H42.2122Z" fill="white"></path><path d="M47.678 48.8619C46.9692 48.8619 46.433 48.6614 46.0694 48.2604C45.715 47.8595 45.5379 47.2953 45.5379 46.5679V42.4835H44.167V41.9659H45.5379V39.8538H46.1392V41.9659H48.4332V42.4835H46.1392V46.442C46.1392 47.0481 46.2605 47.5098 46.503 47.8268C46.7547 48.1439 47.1604 48.3024 47.7199 48.3024C47.8971 48.3024 48.065 48.2838 48.2235 48.2465C48.3914 48.1999 48.5312 48.1531 48.6431 48.1065L48.783 48.6101C48.6897 48.6754 48.5312 48.7314 48.3074 48.778C48.0836 48.8339 47.8737 48.8619 47.678 48.8619Z" fill="white"></path><path d="M52.7425 48.8619C52.0618 48.8619 51.4743 48.722 50.98 48.4423C50.4952 48.1625 50.1175 47.7663 49.847 47.2533C49.5767 46.7311 49.4414 46.1063 49.4414 45.379C49.4414 44.6703 49.572 44.0548 49.833 43.5325C50.1035 43.001 50.4719 42.5908 50.9382 42.3016C51.4137 42.0033 51.9685 41.854 52.6027 41.854C53.1994 41.854 53.7077 41.9893 54.1273 42.2596C54.5469 42.5208 54.864 42.8938 55.0785 43.3788C55.3023 43.8636 55.4142 44.4511 55.4142 45.1411V45.4769H49.833V44.9454H55.1064L54.8407 45.1271C54.8407 44.2786 54.6495 43.6119 54.2672 43.1269C53.8942 42.642 53.3347 42.3995 52.5887 42.3995C52.0478 42.3995 51.5862 42.5255 51.2039 42.7773C50.8309 43.029 50.5464 43.374 50.3507 43.8124C50.1548 44.2413 50.0569 44.7401 50.0569 45.309V45.379C50.0569 45.9944 50.1594 46.5213 50.3647 46.9596C50.579 47.3979 50.8868 47.7335 51.2878 47.9666C51.6888 48.1905 52.1644 48.3024 52.7145 48.3024C53.1249 48.3024 53.5165 48.2371 53.8895 48.1065C54.2719 47.976 54.6449 47.7523 55.0085 47.4351L55.3023 47.9108C55.0039 48.2091 54.6215 48.4423 54.1553 48.6101C53.6984 48.778 53.2274 48.8619 52.7425 48.8619Z" fill="white"></path><path d="M59.9487 48.8619C59.3426 48.8619 58.811 48.722 58.3541 48.4423C57.8971 48.1532 57.5428 47.7429 57.291 47.2114C57.0392 46.6798 56.9133 46.0597 56.9133 45.351C56.9133 44.6329 57.0346 44.0128 57.277 43.4907C57.5288 42.9684 57.8832 42.5674 58.3401 42.2877C58.797 41.9987 59.3332 41.854 59.9487 41.854C60.5921 41.854 61.1423 42.0173 61.5992 42.3437C62.0562 42.67 62.364 43.1177 62.5225 43.6864H62.3966V38.8887H62.998V48.75H62.3966V47.0155H62.5225C62.364 47.575 62.0562 48.0227 61.5992 48.3584C61.1423 48.694 60.5921 48.8619 59.9487 48.8619ZM59.9767 48.3024C60.7227 48.3024 61.3148 48.0413 61.7531 47.5192C62.1913 46.9969 62.4106 46.2742 62.4106 45.351C62.4106 44.4278 62.1913 43.7098 61.7531 43.1969C61.3148 42.6747 60.7227 42.4135 59.9767 42.4135C59.2306 42.4135 58.6338 42.6747 58.1862 43.1969C57.748 43.7098 57.5288 44.4278 57.5288 45.351C57.5288 46.2742 57.748 46.9969 58.1862 47.5192C58.6338 48.0413 59.2306 48.3024 59.9767 48.3024Z" fill="white"></path><path d="M69.1262 48.75V38.8887H69.7277V48.1905H74.9871V48.75H69.1262Z" fill="white"></path><path d="M76.6118 48.75V38.8887H77.2133V48.1905H82.4727V48.75H76.6118Z" fill="white"></path><path d="M84.0974 48.75V38.8887H87.6923C88.3824 38.8887 88.9652 39.0005 89.4408 39.2244C89.9164 39.4388 90.2754 39.7605 90.5178 40.1895C90.7697 40.6092 90.8955 41.1267 90.8955 41.7422C90.8955 42.3483 90.7697 42.8658 90.5178 43.2948C90.2754 43.7238 89.9164 44.0502 89.4408 44.2739C88.9652 44.4978 88.3824 44.6097 87.6923 44.6097H84.6989V48.75H84.0974ZM84.6989 44.0362H87.6643C88.5315 44.0362 89.1797 43.845 89.6087 43.4627C90.0469 43.071 90.266 42.4975 90.266 41.7422C90.266 40.9868 90.0469 40.418 89.6087 40.0357C89.1797 39.644 88.5315 39.4482 87.6643 39.4482H84.6989V44.0362Z" fill="white"></path></g><defs><clipPath id="clip0_214_680"><rect width="102.5" height="50" fill="white"></rect></clipPath></defs></svg> 