<?xml version="1.0" encoding="UTF-8"?> <svg xmlns="http://www.w3.org/2000/svg" width="123" height="60" viewBox="0 0 123 60" fill="none"><path d="M123 0H111L97.5 13.5V25.5L111 39H123L104.25 18.75L123 0Z" fill="#2B3F58"></path><path d="M94.5 0V39H85.5V0H94.5Z" fill="#2B3F58"></path><path d="M17.2589 8.80646V39H26.5197V8.80646H40.832L57.75 24L71.5613 10.9032V39H80.8221V0H71.5613L57.75 12.75L43.7787 0H7.99803L0 8.80646H17.2589Z" fill="#2B3F58"></path><path d="M38.3063 39L38.25 15.75L46.5 23.25L46.3044 39H38.3063Z" fill="#2B3F58"></path><path d="M23.875 58.5V46.6664H24.5968V57.8286H30.9081V58.5H23.875Z" fill="#2B3F58"></path><path d="M32.4717 48.0931V47.0188H33.5628V48.0931H32.4717ZM32.6563 58.5V50.359H33.3781V58.5H32.6563Z" fill="#2B3F58"></path><path d="M36.3613 58.5001V50.3591H37.0663V52.3231H36.9153C37.0495 51.8755 37.2454 51.5006 37.5028 51.1985C37.7713 50.8852 38.0902 50.6446 38.4595 50.4767C38.8288 50.3089 39.2373 50.2249 39.6849 50.2249C40.4235 50.2249 41.0109 50.404 41.4474 50.762C41.8837 51.1201 42.1635 51.6461 42.2866 52.3399H42.0684C42.2586 51.7021 42.6111 51.1928 43.1259 50.8124C43.6407 50.4208 44.2617 50.2249 44.989 50.2249C45.5934 50.2249 46.0912 50.3425 46.4829 50.5774C46.8858 50.8012 47.1879 51.1426 47.3893 51.6013C47.602 52.0489 47.7082 52.6196 47.7082 53.3134V58.5001H46.9698V53.3974C46.9698 52.5469 46.8187 51.9202 46.5165 51.5174C46.2144 51.1033 45.6996 50.8963 44.9722 50.8963C44.4463 50.8963 43.9875 51.0194 43.5958 51.2656C43.2154 51.5117 42.9189 51.8587 42.7062 52.3063C42.5049 52.7428 42.4041 53.2519 42.4041 53.8337V58.5001H41.6656V53.3974C41.6656 52.5469 41.5089 51.9202 41.1955 51.5174C40.8822 51.1033 40.3675 50.8963 39.6513 50.8963C39.1366 50.8963 38.6833 51.0194 38.2917 51.2656C37.9113 51.5117 37.6147 51.8587 37.402 52.3063C37.1895 52.7428 37.0831 53.2463 37.0831 53.8169V58.5001H36.3613Z" fill="#2B3F58"></path><path d="M50.4697 48.0931V47.0188H51.5608V48.0931H50.4697ZM50.6544 58.5V50.359H51.3762V58.5H50.6544Z" fill="#2B3F58"></path><path d="M57.2137 58.6342C56.3632 58.6342 55.7197 58.3936 55.2833 57.9124C54.8581 57.4314 54.6455 56.7543 54.6455 55.8814V50.9802H53.0005V50.359H54.6455V47.8245H55.3672V50.359H58.12V50.9802H55.3672V55.7304C55.3672 56.4577 55.5127 57.0117 55.8037 57.3921C56.1058 57.7726 56.5925 57.9628 57.2639 57.9628C57.4766 57.9628 57.6781 57.9405 57.8683 57.8958C58.0697 57.8398 58.2376 57.7837 58.3718 57.7278L58.5397 58.3321C58.4278 58.4104 58.2376 58.4776 57.9689 58.5336C57.7004 58.6006 57.4486 58.6342 57.2137 58.6342Z" fill="#2B3F58"></path><path d="M63.2909 58.6343C62.474 58.6343 61.769 58.4665 61.1759 58.1308C60.5941 57.7951 60.1409 57.3196 59.8163 56.704C59.4919 56.0774 59.3296 55.3276 59.3296 54.4549C59.3296 53.6044 59.4863 52.8658 59.7995 52.2391C60.1241 51.6013 60.5662 51.109 61.1257 50.762C61.6963 50.404 62.3621 50.2249 63.1231 50.2249C63.8392 50.2249 64.4491 50.3872 64.9526 50.7116C65.4562 51.025 65.8367 51.4726 66.0941 52.0546C66.3626 52.6364 66.4969 53.3414 66.4969 54.1694V54.5723H59.7995V53.9345H66.1276L65.8087 54.1526C65.8087 53.1344 65.5793 52.3343 65.1205 51.7523C64.6729 51.1705 64.0015 50.8795 63.1063 50.8795C62.4572 50.8795 61.9033 51.0307 61.4446 51.3328C60.997 51.6349 60.6556 52.0489 60.4207 52.5749C60.1856 53.0896 60.0682 53.6882 60.0682 54.3709V54.4549C60.0682 55.1933 60.1912 55.8256 60.4375 56.3516C60.6947 56.8775 61.064 57.2803 61.5452 57.56C62.0264 57.8287 62.5972 57.9629 63.2573 57.9629C63.7498 57.9629 64.2197 57.8846 64.6673 57.7279C65.1262 57.5713 65.5738 57.3028 66.0101 56.9222L66.3626 57.493C66.0046 57.851 65.5457 58.1308 64.9862 58.3322C64.438 58.5337 63.8728 58.6343 63.2909 58.6343Z" fill="#2B3F58"></path><path d="M71.9383 58.6343C71.211 58.6343 70.573 58.4664 70.0248 58.1307C69.4764 57.7838 69.0513 57.2915 68.7491 56.6537C68.447 56.0157 68.2959 55.2716 68.2959 54.4212C68.2959 53.5595 68.4414 52.8153 68.7323 52.1888C69.0345 51.5621 69.4597 51.0809 70.008 50.7452C70.5562 50.3984 71.1997 50.2248 71.9383 50.2248C72.7104 50.2248 73.3707 50.4207 73.9189 50.8124C74.4673 51.204 74.8366 51.7412 75.0268 52.4237H74.8758V46.6664H75.5974V58.5H74.8758V56.4186H75.0268C74.8366 57.09 74.4673 57.6272 73.9189 58.0301C73.3707 58.4328 72.7104 58.6343 71.9383 58.6343ZM71.9719 57.9629C72.8671 57.9629 73.5777 57.6495 74.1036 57.023C74.6295 56.3963 74.8926 55.529 74.8926 54.4212C74.8926 53.3133 74.6295 52.4517 74.1036 51.8363C73.5777 51.2096 72.8671 50.8962 71.9719 50.8962C71.0766 50.8962 70.3605 51.2096 69.8233 51.8363C69.2974 52.4517 69.0345 53.3133 69.0345 54.4212C69.0345 55.529 69.2974 56.3963 69.8233 57.023C70.3605 57.6495 71.0766 57.9629 71.9719 57.9629Z" fill="#2B3F58"></path><path d="M82.9512 58.5V46.6664H83.673V57.8286H89.9842V58.5H82.9512Z" fill="#2B3F58"></path><path d="M91.9341 58.5V46.6664H92.6559V57.8286H98.9671V58.5H91.9341Z" fill="#2B3F58"></path><path d="M100.917 58.5V46.6664H105.231C106.059 46.6664 106.758 46.8006 107.329 47.0693C107.9 47.3265 108.331 47.7126 108.621 48.2274C108.924 48.731 109.075 49.352 109.075 50.0906C109.075 50.8179 108.924 51.4389 108.621 51.9537C108.331 52.4685 107.9 52.8602 107.329 53.1287C106.758 53.3973 106.059 53.5316 105.231 53.5316H101.639V58.5H100.917ZM101.639 52.8434H105.197C106.238 52.8434 107.016 52.614 107.53 52.1552C108.056 51.6852 108.319 50.997 108.319 50.0906C108.319 49.1841 108.056 48.5016 107.53 48.0428C107.016 47.5728 106.238 47.3378 105.197 47.3378H101.639V52.8434Z" fill="#2B3F58"></path></svg>
