<svg width="174" height="40" viewBox="0 0 174 40" fill="none" xmlns="http://www.w3.org/2000/svg">
<g clip-path="url(#clip0_2052_5899)">
<path d="M0 0V40L6.06014 38.7114L41.4932 32.608L35.3684 3.16884L0 0ZM9.47778 37.4638C9.3662 37.5399 9.25463 37.4462 9.10195 37.4813C9.20765 37.3408 9.33097 37.3466 9.46016 37.3935C9.47778 37.3935 9.49539 37.4579 9.47778 37.4638ZM12.8837 36.181C12.8015 36.1693 12.7134 36.1224 12.7369 36.0756C12.7838 35.9877 12.913 35.9643 13.0422 35.9643C13.1068 35.9643 13.189 35.9643 13.1655 36.0287C13.1303 36.1283 12.9776 36.1341 12.8778 36.181H12.8837ZM13.9642 35.5074C13.9231 35.5367 13.8761 35.566 13.8115 35.6011C13.8115 35.5425 13.7821 35.4664 13.8115 35.4371C13.8937 35.3727 14.0111 35.3375 14.1168 35.2907C14.1168 35.2907 14.1697 35.3258 14.1697 35.3492C14.1932 35.4664 14.0346 35.4605 13.9524 35.5074H13.9642ZM16.0136 34.3593C15.8726 34.4941 15.7728 34.6639 15.5262 34.7577C15.3911 34.4941 15.7023 34.3652 15.8257 34.1836C15.8491 34.1485 15.949 34.1426 15.9959 34.1778C16.0664 34.2305 16.0605 34.3125 16.0136 34.3593ZM35.2921 3.50857C35.0278 3.57885 34.8517 3.76043 34.5287 3.77801C34.2821 3.78972 34.1176 3.97716 33.8593 4.02402C33.8417 4.02402 33.7594 4.03573 33.8123 4.05916C33.9239 4.11188 33.965 4.18216 33.8534 4.22902C33.7888 4.25831 33.6655 4.19974 33.6068 4.14116C33.5069 4.04159 33.5246 4.15873 33.5128 4.17045C33.4658 4.23488 33.4247 4.29931 33.3954 4.3696C33.3425 4.51018 33.2779 4.65075 33.0313 4.63318C32.7553 4.60389 33.0078 4.41646 32.861 4.34617C32.6437 4.43989 32.8258 4.57461 32.8199 4.69761C32.814 4.79133 32.908 4.94948 32.7377 4.95534C32.5732 4.95534 32.3207 4.94362 32.2855 4.74447C32.2738 4.6859 32.3325 4.6039 32.1974 4.58632C32.0741 4.57461 32.0036 4.63318 31.9508 4.69761C31.8862 4.77962 32.0213 4.79719 32.0682 4.84405C32.1035 4.87919 32.1798 4.89091 32.215 4.92605C32.3384 5.03148 32.3266 5.16035 32.2268 5.25406C32.0624 5.41221 32.0565 5.20135 31.9743 5.17206C31.7922 5.10763 31.6631 5.02563 31.5691 5.26578C31.4928 5.47079 31.2872 5.65236 31.1404 5.84566C31.0993 5.89837 31.0876 5.9218 30.976 5.91009C30.3124 5.8398 30.1656 6.02138 30.0247 6.34939C29.7722 6.19124 29.7663 6.1971 29.6313 6.41382C29.6254 6.42554 29.5902 6.4314 29.5725 6.43725C29.0088 6.54269 28.8679 7.02299 28.3335 7.17528C28.0634 7.25143 28.0047 7.57358 27.6112 7.60873C27.6112 7.46229 27.529 7.36272 27.3411 7.28657C27.1238 7.19285 27.1943 7.04056 27.2648 6.88827C27.2941 6.8297 27.4174 6.71841 27.2413 6.68326C27.0534 6.64226 27.1003 6.80041 27.0886 6.85313C27.0181 7.06399 26.9711 7.28071 26.654 7.392C26.7715 7.49744 26.9242 7.41543 27.0475 7.49158C26.9242 7.6263 26.7128 7.64973 26.5307 7.70245C26.425 7.73759 26.2371 7.73759 26.3957 7.92503C26.5307 8.08317 26.3663 8.2999 26.2371 8.4639C26.1901 8.52248 26.0962 8.56348 26.0551 8.44633C25.9552 8.17689 25.8143 8.35847 25.7615 8.44633C25.6558 8.59862 25.5383 8.59862 25.321 8.59862C25.0979 8.59862 25.2388 8.50491 25.2095 8.46976C24.9805 8.72163 24.8043 9.0145 24.2875 9.03207C24.1818 9.03207 24.0879 9.10822 24.0174 8.99107C24.0057 8.9735 23.8882 8.96178 23.8824 8.97935C23.7297 9.1785 23.3304 9.07307 23.1894 9.3308C23.0661 9.55338 22.7079 9.64709 22.4084 9.74667C22.1677 9.82867 22.3145 9.64709 22.2323 9.60023C21.9093 9.82867 21.7038 10.1625 21.2692 10.2914C20.7818 10.4437 20.3473 10.637 19.9303 10.8654C19.8599 10.9064 19.7718 10.9591 19.6191 10.8654C19.4899 10.7834 19.2961 10.9299 19.2022 11.0587C18.9673 11.3633 18.6326 11.5859 18.1745 11.7089C18.0806 11.7323 17.9749 11.7323 17.834 11.744C18.1511 11.8612 17.9925 12.0076 17.8986 12.1423C17.6872 12.4352 17.235 12.6051 17.188 12.9741C17.188 12.9917 17.1645 13.0092 17.1469 13.0151C16.9473 13.0619 16.5538 13.0034 16.7828 13.2962C16.9003 13.4544 16.7828 13.636 16.9707 13.7648C16.8474 13.8585 16.6889 13.7765 16.4775 13.8761C17.0412 13.8 17.1058 13.9757 17.0647 14.2803C17.0412 14.4619 17.3935 14.415 17.5638 14.4911C17.6226 14.5204 17.7635 14.456 17.7929 14.5321C17.8281 14.6083 17.7224 14.6376 17.6343 14.6669C17.5345 14.702 17.4523 14.784 17.5227 14.8426C17.6049 14.9129 17.7106 14.8953 17.834 14.8133C17.9984 14.702 18.2274 14.5556 18.4564 14.8016C18.5093 14.8602 18.6502 14.9012 18.5504 14.9714C18.4388 15.0476 18.3859 14.9246 18.3155 14.8836C18.2802 14.8602 18.2626 14.825 18.2391 14.7899C18.1393 14.8953 18.0512 15.0183 17.8692 15.0476C17.6343 15.0886 17.7576 15.2116 17.7459 15.2936C17.7283 15.4107 17.8692 15.3756 17.9631 15.3873C18.3214 15.4342 18.6796 15.4928 19.0378 15.3873C19.0378 15.3873 19.0378 15.3873 19.0436 15.3873C19.167 15.2936 19.3196 15.3522 19.4606 15.3522C19.3255 15.3815 19.1963 15.4459 19.0436 15.3873C19.0436 15.3873 19.0436 15.3873 19.0378 15.3873C19.0378 15.481 19.0789 15.5513 19.2139 15.5865C19.3549 15.6275 19.4195 15.5455 19.4547 15.4928C19.578 15.317 19.9656 15.3639 20.0184 15.1179C20.0302 15.0769 20.2474 15.0886 20.3708 15.1296C20.4823 15.1706 20.588 15.2526 20.7172 15.1882C20.7994 15.153 20.8582 15.1472 20.9169 15.1999C20.9991 15.2819 20.7525 15.2585 20.8405 15.3405C21.1459 15.3053 21.463 15.2526 21.5335 15.5689C21.6861 15.5923 21.8623 15.1999 21.968 15.604C21.8799 15.6626 21.7742 15.7153 21.692 15.7798C21.6039 15.8442 21.5511 15.8852 21.4571 15.768C21.3573 15.645 21.2399 15.768 21.1342 15.7915C20.9815 15.8208 20.8464 15.9555 20.6702 15.8266C20.5352 15.8149 20.4236 15.8266 20.312 15.9321C20.4765 15.9321 20.6291 15.9321 20.7701 15.9321C20.8405 15.9321 20.9462 15.9086 20.9521 15.9848C20.9521 16.0609 20.864 16.0843 20.7701 16.1019C20.6409 16.1312 20.5117 15.9672 20.3825 16.1195C20.588 16.2601 20.9169 16.2484 21.0813 16.4299C21.2164 16.3304 21.2222 16.2074 21.281 16.0961C21.3162 16.0375 21.3162 15.9379 21.4512 15.9379C21.4865 15.9379 21.5452 15.9789 21.5569 16.0023C21.5804 16.0785 21.6215 16.1488 21.4806 16.2132C21.3338 16.2835 21.2105 16.3889 21.3221 16.5412C21.3338 16.5529 21.3455 16.7169 21.4571 16.5529C21.4982 16.4885 21.6744 16.1605 21.9386 16.4709C22.1559 16.3362 22.3614 16.5236 22.5787 16.4885C22.6785 16.4709 22.7255 16.4592 22.7549 16.3772C22.8312 16.1605 23.1718 16.1429 23.348 15.9906C23.3891 15.9555 23.577 15.9672 23.6357 16.0023C23.7355 16.0668 23.5535 16.1136 23.5418 16.1839C23.7473 16.2484 23.8236 16.1195 23.9176 16.0433C24.1936 15.809 24.2053 15.8032 24.4989 16.0668C24.5107 16.0023 24.5048 15.9496 24.5342 15.9086C24.5694 15.8442 24.681 15.8501 24.7338 15.8735C24.863 15.9321 24.6692 15.9203 24.681 15.9672C24.6986 16.0433 24.6575 16.1722 24.7045 16.1898C24.8337 16.2425 24.9981 16.3128 25.1449 16.1781C25.2271 16.0961 25.3445 16.0433 25.4913 16.0551C25.5031 16.0551 25.5207 16.1019 25.5207 16.1312C25.4972 16.2601 25.3328 16.2776 25.2153 16.3069C25.1155 16.3304 25.0274 16.3538 24.9511 16.4065C25.0979 16.4768 25.2095 16.3831 25.3387 16.3772C25.4267 16.3772 25.5207 16.3655 25.5266 16.4651C25.5324 16.5588 25.4913 16.6174 25.3563 16.5939C24.8982 16.5236 24.5107 16.6818 24.082 16.7989C24.3874 16.9044 24.8395 16.9747 24.9452 16.8107C25.0979 16.5705 25.3034 16.6408 25.4561 16.6701C25.6205 16.6994 25.7438 16.6877 25.8907 16.6525C25.9435 16.6349 26.1901 16.6935 26.243 16.7052C26.3487 16.7228 26.3957 16.7462 26.2958 16.7989C26.1138 16.8927 26.243 16.9454 26.3135 17.0332C26.4661 17.2324 26.6423 17.3144 26.9535 17.2207C27.0475 17.1914 27.2002 17.1972 27.2882 17.2382C27.5114 17.3378 27.6699 17.2675 27.8344 17.1621C27.8109 17.1562 27.7933 17.1445 27.7698 17.1387C27.6288 17.0977 27.5584 17.0215 27.5584 16.9161C27.5584 16.9044 27.6699 16.8868 27.7228 16.8868C27.9166 16.8868 27.9283 16.9981 27.9224 17.0977C28.1515 17.0332 28.3864 16.963 28.6447 16.9922C28.7446 17.004 28.8737 16.9864 28.8796 17.0801C28.8855 17.1445 28.8385 17.2207 28.6976 17.2265C28.6212 17.2265 28.5449 17.2792 28.4627 17.3085C28.8679 17.5721 29.3905 17.5018 29.6195 17.1621C29.6782 17.0742 29.7487 16.9454 29.9249 16.9805C30.013 16.9981 30.1539 17.0742 30.1304 17.1621C30.0952 17.291 29.9425 17.1621 29.7957 17.2265C30.1069 17.2968 30.1069 17.5545 30.3888 17.6541C30.5297 17.701 30.6354 17.7478 30.7705 17.6893C30.882 17.6424 30.9525 17.6717 31.0465 17.7244C31.3401 17.8826 31.346 17.8767 31.6396 17.6893C31.6572 17.6776 31.7042 17.6717 31.7042 17.6717C31.8862 17.8943 32.1446 17.7127 32.356 17.742C32.127 17.9353 32.491 18.1169 32.3677 18.3043C32.3266 18.3687 32.2209 18.3511 32.1681 18.316C32.08 18.2574 31.986 18.2223 31.851 18.1871C31.9038 18.3277 31.9567 18.4507 31.9919 18.5854C32.0154 18.6909 32.0976 18.767 32.2268 18.7787C32.3501 18.7963 32.3736 18.6909 32.4147 18.6264C32.4852 18.521 32.5556 18.4097 32.6144 18.2984C32.6555 18.2164 32.7083 18.1637 32.8316 18.1754C32.9667 18.1871 32.9315 18.275 32.9138 18.3277C32.8492 18.5737 32.8786 18.8373 32.6966 19.0657C32.6202 19.1712 32.7435 19.2239 32.8551 19.2766C33.2133 19.4406 33.5598 19.6046 33.7712 19.8858C33.8828 20.0264 34.0296 20.1669 33.8417 20.3368C33.9591 20.4071 33.595 20.6882 34.0648 20.6004C34.1529 20.5887 34.1411 20.659 34.147 20.7C34.2703 21.6723 33.9885 22.5743 33.3132 23.4119C33.0254 23.7634 32.7201 24.1148 32.4147 24.4604C32.3677 24.5131 32.3736 24.5834 32.2033 24.5541C31.9449 24.5131 31.7629 24.7181 31.7042 24.9114C31.6454 25.134 31.6631 25.4151 31.1522 25.4327C30.8879 25.4444 30.9349 25.667 30.8468 25.8193C30.9055 25.6612 30.5062 25.5264 30.8175 25.3507C30.8997 25.3039 30.794 25.1926 30.7411 25.1223C30.7176 25.0871 30.6706 25.0754 30.6178 25.1047C30.5121 25.1574 30.5238 25.2277 30.5238 25.3039C30.5238 25.9833 30.0717 26.4695 29.3083 26.8268C29.2789 26.8385 29.232 26.8502 29.2261 26.8736C29.0264 27.2836 28.9266 26.9029 28.768 26.8502C28.4862 27.0786 28.5038 27.4301 28.2161 27.6702C28.0693 27.7874 27.9342 27.9162 27.6876 27.7639C27.5055 27.6527 27.4057 27.7698 27.3117 27.8577C26.8831 28.2735 26.4368 28.6777 25.8437 28.9706C25.5501 29.1111 25.3034 29.3806 24.8513 29.2576C24.7456 29.2283 24.728 29.3337 24.7632 29.3689C24.9452 29.5797 24.7397 29.6324 24.5342 29.691C23.6651 29.9253 22.8958 30.2943 22.1031 30.6282C21.9034 30.7161 21.9152 30.8566 21.8388 30.9738C21.6333 31.2725 21.6098 31.2784 21.3103 31.0558C21.0637 31.3018 21.1753 31.665 20.8053 31.8641C20.7642 31.7587 20.6879 31.747 20.5704 31.8055C20.4471 31.8641 20.3238 31.8173 20.2181 31.7704C20.0419 31.6884 20.1828 31.6298 20.2474 31.5654C20.0047 31.5537 19.8755 31.6181 19.8599 31.7587C19.7013 31.7997 19.7307 31.6122 19.5898 31.6474C19.5604 31.6532 19.5252 31.7177 19.5369 31.7411C19.6015 31.8875 19.7307 31.9695 19.9538 31.9813C19.8716 32.0047 19.7953 32.0457 19.7131 32.0515C19.3725 32.0867 19.0436 32.0515 18.9614 32.4381C18.8792 32.8306 18.3331 33.0239 17.9455 33.2699C17.6108 33.4807 17.2467 33.6623 16.959 33.9142C16.8181 34.0372 16.5538 34.0899 16.3424 34.1661C16.1897 34.2188 16.1839 34.1192 16.2191 34.0665C16.2661 33.9845 16.3307 33.8966 16.4246 33.838C16.6536 33.6975 16.7652 33.51 16.9296 33.2933C16.7417 33.3109 16.501 33.1996 16.589 33.4573C16.6243 33.5686 16.5714 33.6272 16.3894 33.6272C16.1604 33.6272 16.0136 33.7209 16.0018 33.8966C16.0018 34.0196 15.8374 34.0313 15.7787 34.0138C15.4792 33.9142 15.5144 34.0548 15.5086 34.1895C15.5086 34.3301 15.3911 34.4062 15.2032 34.4238C15.2032 34.4941 15.2032 34.5702 15.2032 34.6464C15.2032 34.7166 15.1973 34.7869 15.0505 34.7342C14.8802 34.6698 14.6747 34.6756 14.5279 34.7166C14.3517 34.7635 14.0757 34.7694 14.0581 34.9685C14.0464 35.0857 13.8878 35.1442 13.8585 35.0915C13.7234 34.8689 13.4768 35.1267 13.3358 35.0037C13.3241 34.9919 13.2889 34.9978 13.2654 34.9978C13.2477 35.2965 12.5372 35.3141 12.7251 35.7065C12.7545 35.771 12.637 35.8647 12.5313 35.8061C12.3669 35.7124 12.2377 35.7651 12.1027 35.8413C12.0498 35.6773 12.3904 35.6304 12.2436 35.4605C12.0381 35.5484 11.9324 35.8061 11.5977 35.6948C11.5859 35.6948 11.5389 35.7241 11.5448 35.73C11.7914 36.0756 11.1044 35.9526 11.1161 36.181C11.1161 36.1927 11.0633 36.2103 11.0339 36.222C10.8578 36.0228 10.7697 36.2981 10.6816 36.2689C10.3762 36.1576 10.4467 36.3919 10.4584 36.4153C10.5172 36.5383 10.3527 36.6086 10.3116 36.5969C9.8536 36.4797 9.85947 36.7843 9.70679 36.9366C9.68918 36.9542 9.64807 36.9659 9.59522 36.9952C9.58348 36.8604 9.5776 36.7433 9.55999 36.591C9.36033 36.7199 9.05498 36.7609 9.26638 37.0186C9.31335 37.0772 9.28399 37.1767 9.17242 37.2119C8.99625 37.2646 9.008 37.1006 8.9023 37.0713C8.87881 37.0772 8.85532 37.083 8.8377 37.0947C8.66741 37.2177 9.13131 37.329 8.84945 37.4579C8.6909 37.5282 8.46188 37.5633 8.48537 37.7625C8.48537 37.7625 8.47363 37.7742 8.46188 37.7742C8.31507 37.8211 8.16827 37.6571 7.99797 37.7859C7.94512 37.8269 7.71024 37.9323 7.48709 37.9968C7.48709 38.1901 7.3579 38.3189 7.11127 38.3541C6.95272 38.3717 6.85876 38.3307 6.89987 38.2076C6.94685 38.0729 7.11127 37.9089 6.71196 37.9558C6.71196 37.9558 6.67085 37.8913 6.67672 37.8913C6.79417 37.8211 6.80004 37.6746 6.95272 37.6453C7.07016 37.6219 6.97621 37.7215 7.00557 37.7332C7.27569 37.8211 7.02318 37.9558 7.07016 38.0612C7.19348 37.9499 7.75134 37.6453 7.66326 37.5048C7.63977 37.4579 7.61628 37.3642 7.75721 37.3525C7.85704 37.3408 7.96861 37.3349 7.96861 37.452C7.96861 37.4989 7.96861 37.5926 8.06844 37.5516C8.13304 37.5282 8.26223 37.5223 8.25635 37.3876C8.25635 37.2177 8.25635 37.0362 8.27984 36.8604C8.27984 36.837 8.30333 36.8136 8.32682 36.7726C8.45601 36.8312 8.43252 36.8897 8.37967 36.96C8.32095 37.0362 8.34444 37.1123 8.45014 37.1475C8.57933 37.1943 8.60281 37.1006 8.66741 37.0479C8.89055 36.8546 8.61456 36.7316 8.54409 36.5734C8.31508 36.7199 8.00972 36.8019 7.8864 37.0479C7.66913 36.9014 7.71024 36.7374 7.75134 36.5852C7.81006 36.3977 8.00385 36.427 8.2035 36.468C8.52648 36.5383 8.86119 36.3567 8.70851 36.2044C8.43252 35.935 8.8377 35.9584 8.89055 35.8354C9.03149 35.8823 8.89055 36.0346 9.0491 36.0287C9.14306 36.0287 9.28399 35.9994 9.27812 35.8823C9.27812 35.8588 9.30748 35.8354 9.3251 35.8061C9.37208 35.7065 9.50127 35.6363 9.60109 35.6655C9.74203 35.7065 9.60109 35.8061 9.58348 35.9174C9.73615 35.8588 9.86534 35.7593 10.018 35.8354C10.1707 35.9116 10.1942 35.8178 10.2294 35.7593C10.3234 35.6128 10.4056 35.4664 10.4995 35.32C10.3704 35.3258 10.2588 35.32 10.2823 35.1852C10.2999 35.0681 10.3997 35.0329 10.5465 35.0447C10.7227 35.0564 10.7168 35.1149 10.5113 35.32C10.6698 35.3961 10.5348 35.4957 10.5583 35.5953C10.664 35.5953 10.7814 35.5953 10.893 35.5953C11.0222 35.5953 11.122 35.5718 10.9576 35.484C10.8871 35.443 10.9576 35.4254 10.9752 35.402C11.2336 35.0798 11.2336 35.0798 10.6933 35.0505C10.9811 34.9392 11.2453 34.8514 11.3393 34.6346C11.3686 34.5761 11.5037 34.5644 11.5331 34.5995C11.6799 34.7752 11.7973 34.6346 11.9206 34.5878C11.9559 34.5761 12.0146 34.5526 12.0146 34.5116C12.0205 34.4999 12.0322 34.4999 12.0381 34.4882C12.0616 34.4121 11.9676 34.2715 11.8678 34.2715C11.7268 34.2773 11.7386 34.3711 11.721 34.4531C11.6857 34.4414 11.6975 34.4062 11.7268 34.3242C11.7914 34.1661 11.6035 34.2656 11.5389 34.2305C11.5742 34.0606 11.8971 34.0489 11.903 33.838C11.903 33.7853 12.0322 33.7795 12.1673 33.7736C12.2319 33.8263 12.3493 33.8439 12.4256 33.8966C12.4256 33.9083 12.4256 33.9142 12.4315 33.92C12.4785 33.9728 12.5313 34.0196 12.5783 34.0723C12.4667 34.0723 12.3963 34.0255 12.3023 33.9786C12.0498 33.8556 12.1438 34.1426 11.9676 34.1602C11.903 34.1661 11.903 34.2481 11.9676 34.2598C12.1085 34.2891 12.2671 34.3301 12.4021 34.3125C12.549 34.2949 12.6018 34.1836 12.5783 34.0723C12.7486 34.0196 12.9659 34.1192 13.1186 33.9728C13.1597 33.9376 13.2712 34.0313 13.3123 34.0782C13.3887 34.1661 13.4415 34.2598 13.6236 34.2949C13.7351 34.0138 13.2771 33.7268 13.6471 33.4573C13.8115 33.4163 13.6647 33.6682 13.8585 33.5979C13.9407 33.5686 14.0522 33.5217 14.0229 33.428C14.0053 33.3577 13.9113 33.3167 13.8174 33.3402C13.5942 33.3812 13.4768 33.2582 13.3358 33.182C13.2654 33.1469 13.2477 33.0824 13.3006 33.0356C13.3534 32.9829 13.4357 32.9946 13.4944 33.0414C13.8115 33.2933 14.2167 33.1527 14.5749 33.1586C14.8098 33.1586 14.8156 32.936 14.8626 32.8071C14.9213 32.6431 14.6571 32.69 14.522 32.6314C14.4985 32.7954 14.5044 32.9594 14.3811 33.0942C14.2225 32.9009 14.3459 32.5846 14.6101 32.5026C14.663 32.485 14.751 32.4791 14.7745 32.4498C15.1738 32.0047 15.9196 32.0223 16.4657 31.7821C16.589 31.7294 16.6654 31.706 16.5479 31.6122C16.7182 31.5302 16.7476 31.3077 17.0647 31.3721C17.2174 31.4014 17.4053 31.4014 17.4405 31.2198C17.4699 31.0792 17.6343 31.0675 17.7694 31.1144C17.9631 31.1788 18.016 31.1261 18.0512 31.0031C18.1511 30.6575 18.4682 30.4349 18.8616 30.2709C18.9849 30.2182 19.0789 30.2006 19.0025 30.0659C18.9321 29.9429 19.0671 29.8257 19.1258 29.7027C19.1435 29.6617 19.2139 29.6266 19.2315 29.6442C19.4488 29.8492 19.7307 29.609 19.9538 29.7086C20.0067 29.732 20.0419 29.7203 20.0889 29.7086C20.4295 29.6032 20.8112 29.5797 20.9462 29.2166C21.0696 28.8886 21.3103 28.5605 21.8682 28.4375C22.1677 28.3731 22.1383 28.092 22.1794 27.9045C22.2088 27.7815 22.2146 27.7405 22.3849 27.7229C22.6785 27.6995 22.7549 27.5648 22.6139 27.3774C22.426 27.1255 22.4671 27.0259 22.8312 26.9439C22.9017 26.9263 22.9722 26.9205 23.0485 26.9029C22.8958 27.0201 22.7431 27.1606 22.8136 27.4184C22.9956 27.2251 23.0779 27.0669 23.1248 26.8912C23.2482 26.8678 23.3656 26.8443 23.4889 26.8268C23.5476 26.8151 23.6416 26.8385 23.6592 26.7858C23.7238 26.5808 23.9352 26.6628 24.0996 26.6569C24.2464 26.651 24.4167 26.7038 24.4754 26.5163C24.5048 26.4226 24.6751 26.3172 24.728 26.5515C24.7514 26.6569 24.9159 26.5808 25.0098 26.5983C25.0568 26.6042 25.1273 26.5983 25.1214 26.5456C25.1096 26.4753 25.0568 26.4285 24.9452 26.4402C24.9041 26.4402 24.8454 26.4929 24.8454 26.4226C24.8454 26.3992 24.8748 26.364 24.9041 26.3582C25.2447 26.3172 25.3739 26.0829 25.6088 25.9423C25.6851 25.9013 25.7556 25.8369 25.8378 25.8779C25.9376 25.9306 25.7673 25.9599 25.785 26.0009C25.8084 26.0653 25.8202 26.1649 25.9318 26.1766C26.0492 26.1883 26.0433 26.1063 26.0668 26.0419C26.2136 25.6612 26.4133 25.2863 26.2312 24.8821C26.1901 24.8001 26.2489 24.7357 26.3311 24.6888C26.4426 24.6244 26.5601 24.56 26.7069 24.5775C27.0534 24.6185 26.9242 24.2964 27.1238 24.2788C27.2882 24.2671 27.4703 24.4955 27.6582 24.2495C27.5349 24.2378 27.435 24.232 27.3352 24.2261C27.4174 23.8102 28.0575 23.7516 28.2689 23.4002C28.2454 23.5174 28.1984 23.6169 28.357 23.6989C28.4098 23.7282 28.4157 23.8161 28.5097 23.7634C28.5743 23.7282 28.7328 23.6814 28.6154 23.5994C28.1221 23.2421 28.5978 23.0312 28.8503 22.8028C29.2907 22.4103 29.643 21.971 29.9014 21.5024C30.0952 21.151 30.0188 20.987 29.4727 20.6882C29.0617 20.4657 28.5684 20.3251 28.1456 20.1201C27.2413 19.6749 26.1784 19.6222 25.1801 19.423C23.7473 19.1419 22.338 18.8256 20.9345 18.4859C20.7348 18.439 20.5058 18.4507 20.3355 18.3043C20.2357 18.2223 20.0713 18.316 19.9656 18.3804C19.8188 18.4683 19.6191 18.4976 19.5252 18.4097C19.3372 18.234 19.1317 18.2574 18.8968 18.2809C18.6326 18.3043 18.4094 18.1989 18.1804 18.1344C17.74 18.0056 17.2878 17.8826 16.8357 17.783C16.4951 17.7068 16.2954 17.5194 16.0547 17.3554C15.8198 17.2031 15.6554 16.9805 15.3148 16.9337C15.2032 16.922 15.2267 16.8634 15.2091 16.8107C15.1386 16.5705 15.074 16.3245 14.5984 16.4241C14.5749 16.4241 14.5279 16.4006 14.4985 16.3831C14.475 16.3655 14.4633 16.3362 14.4281 16.2952C14.5631 16.2249 14.7275 16.2835 14.8802 16.2366C14.7099 16.0843 14.5573 15.9438 14.387 15.809C14.293 15.7388 14.2108 15.7212 14.2695 15.8618C14.2871 15.9028 14.2284 15.9262 14.1697 15.9203C13.9583 15.8911 13.8585 15.7622 13.7528 15.6509C13.7175 15.6099 13.512 15.522 13.7762 15.4342C13.9289 15.3873 13.7762 15.2057 13.7762 15.0945C13.7762 14.8602 13.7469 14.5849 13.4357 14.4091C13.3887 14.5204 13.5648 14.6083 13.4591 14.7606C13.2419 14.4267 12.8837 14.1631 12.9894 13.7531C13.1186 13.882 13.2771 13.9815 13.3476 14.1104C13.3946 14.1983 13.236 14.333 13.4298 14.4091C13.4357 14.21 13.5883 14.3623 13.6412 14.374C13.7293 14.3974 13.8115 14.4209 13.8878 14.374C14.0111 14.2978 13.8526 14.2686 13.835 14.2217C13.7645 13.9933 13.7058 13.7648 13.6412 13.5364C13.5531 13.4778 13.4944 13.5481 13.4357 13.5657C13.283 13.6125 13.1538 13.6653 13.2184 13.4661C13.2771 13.3021 13.0775 13.2259 12.9894 13.1147C12.8602 12.9448 12.7838 12.8159 13.1303 12.7749C13.3476 12.7515 13.2595 12.6402 13.2712 12.5641C13.3358 11.9842 13.741 11.5683 14.3106 11.1759C14.475 11.0646 14.7569 11.0001 14.845 10.7834C14.9213 10.5843 14.8332 10.5491 14.569 10.5491C15.1092 10.3851 15.3617 10.0747 15.6025 9.74081C15.72 9.58266 15.8433 9.35422 16.2602 9.42451C16.5186 9.47137 16.8709 9.18436 16.912 8.96178C16.9238 8.91492 16.9414 8.88563 16.9942 8.89149C17.1175 8.90906 17.2937 8.8212 17.3524 8.96178C17.3935 9.06136 17.4346 9.03793 17.4875 8.98521C17.5697 8.90321 17.417 8.69234 17.7576 8.74506C17.9455 8.77434 17.8868 8.52248 18.0982 8.53419C18.153 8.71382 18.3507 8.79192 18.6913 8.76849C18.6443 8.68648 18.5151 8.75092 18.4564 8.6982C18.4271 8.59277 18.5915 8.61034 18.6502 8.55176C18.7324 8.4639 18.9438 8.41119 18.6737 8.28818C18.5151 8.21789 18.6091 8.13003 18.7383 8.04803C19.5898 7.52672 20.6291 7.29829 21.6509 7.04642C22.4554 6.84727 23.207 6.58954 23.7532 6.10338C24.0233 5.86323 24.3463 6.0741 24.6223 5.98038C24.7749 5.92766 24.9628 5.95695 25.0098 5.78123C25.0392 5.66994 25.2153 5.68165 25.3387 5.69337C25.5501 5.71094 25.6793 5.64065 25.6734 5.50593C25.6616 5.27164 25.8848 5.27749 26.0844 5.24235C26.3604 5.19549 26.6775 5.18963 26.701 4.89091C26.7069 4.82648 26.8067 4.80305 26.9065 4.78547C27.1121 4.75033 27.3411 4.7269 27.5173 4.65075C27.9401 4.46918 28.3981 4.4516 28.8679 4.4516C28.9971 4.4516 29.1556 4.48089 29.2143 4.37546C29.3377 4.12945 29.5491 4.26417 29.6841 4.3286C29.8896 4.42817 30.0482 4.34617 30.0658 4.2466C30.0893 4.04159 30.2596 3.98887 30.4651 3.94201C30.7705 3.86001 31.0406 3.75458 31.3166 3.60814C31.6924 3.40313 32.1974 3.36213 32.6555 3.28013C33.0313 3.2157 33.5304 3.08098 33.7947 3.19813C34.3173 3.43242 34.7753 3.39142 35.2862 3.27427C35.3567 3.2567 35.4037 3.30356 35.3978 3.35627C35.3978 3.40899 35.4213 3.46171 35.3215 3.48514L35.2921 3.50857ZM31.2755 17.5077C31.0523 17.6014 30.9232 17.6834 30.7646 17.5838C30.7411 17.5721 30.7646 17.4901 30.794 17.4608C30.9525 17.332 31.0406 17.4901 31.2755 17.5077ZM30.4592 17.5545V17.1972C30.5121 17.3261 30.6002 17.3964 30.4592 17.5545ZM29.0793 17.0567C28.9736 17.0508 28.9325 17.0098 28.9031 16.9512C28.862 16.8809 28.7739 16.8107 28.8679 16.7228C28.9325 16.6642 29.0206 16.6584 29.1086 16.6701C29.1204 16.6701 29.2202 16.6818 29.1556 16.7052C28.8972 16.7989 29.2613 16.9571 29.0851 17.0508L29.0793 17.0567ZM29.6606 16.8575C29.4316 16.9571 29.3435 16.8927 29.1615 16.8575H29.6606ZM27.5819 16.7228L27.529 16.7814C27.1767 16.6291 27.0416 16.8634 26.8243 16.9747C26.6834 17.045 26.5131 17.0508 26.3604 16.9161C26.6423 16.9102 26.7715 16.7872 26.8126 16.6174C26.842 16.5061 26.9359 16.4065 27.0475 16.4592C27.3352 16.5939 27.6641 16.5354 27.9812 16.5881C27.9107 16.7052 27.8285 16.6701 27.7463 16.6467C27.6523 16.6232 27.5114 16.5529 27.5819 16.7228ZM26.29 16.3655C26.29 16.3304 26.29 16.2776 26.3604 16.2894C26.4837 16.3128 26.5601 16.3831 26.6129 16.5236C26.4485 16.4651 26.3076 16.4885 26.29 16.3655ZM26.0551 16.1312C26.0198 16.2484 25.8907 16.2484 25.7027 16.3069C25.8026 16.1488 25.8907 16.1195 26.0551 16.1312ZM21.9739 15.604C21.9974 15.604 22.0209 15.604 22.0385 15.604C22.1618 15.604 22.2969 15.5923 22.338 15.7095C22.338 15.7212 22.3027 15.7446 22.2792 15.7622C22.1853 15.6978 21.9621 15.7739 21.968 15.604H21.9563H21.9621H21.9739ZM22.5846 16.0141C22.4202 16.1371 22.2969 16.1371 22.1148 16.0141H22.5846ZM19.3138 15.2409C19.1904 15.3053 19.1082 15.2233 19.0084 15.1765C19.1258 15.194 19.2139 15.0476 19.3372 15.1413C19.3549 15.1589 19.3372 15.2233 19.3138 15.2409ZM13.2066 14.9832C13.0892 14.9714 13.0305 14.9129 13.0305 14.825C13.0305 14.7723 13.0187 14.7137 13.1303 14.7079C13.2243 14.7723 13.4063 14.7606 13.4004 14.8836C13.4004 14.9539 13.3065 14.9949 13.2066 14.9832ZM13.2419 33.4573C13.3417 33.4573 13.4298 33.5979 13.4063 33.674C13.3534 33.8439 13.1655 33.6858 13.0422 33.7443C13.1479 33.6506 13.0305 33.469 13.2419 33.4632V33.4573ZM13.5003 32.8774C13.5003 32.7896 13.5942 32.7369 13.7058 32.7603C13.8467 32.7837 13.9818 32.8247 14.0816 32.9067C13.9935 32.9946 14.0053 33.1059 13.8643 33.1352C13.8115 32.9946 13.5003 33.0414 13.5003 32.8774ZM17.9103 30.5169C18.0806 30.3998 18.2509 30.2826 18.4916 30.1245C18.4094 30.3646 18.2568 30.4935 18.1276 30.6399C18.0688 30.7102 17.9631 30.7864 17.8457 30.7102C17.7517 30.6458 17.8398 30.5755 17.9103 30.5228V30.5169ZM24.4813 26.2469C24.4813 26.2469 24.4285 26.1883 24.3756 26.1532C24.4343 26.0946 24.5048 26.0419 24.5694 25.9892C24.5518 26.077 24.5224 26.1649 24.4813 26.2469ZM24.3639 26.1649C24.3874 26.2586 24.3404 26.3289 24.405 26.3816C24.3639 26.446 24.311 26.5105 24.2464 26.5808C24.1936 26.3875 24.264 26.2703 24.3639 26.1649ZM25.8143 25.2746C26.0081 25.3976 25.9787 25.4679 25.92 25.5557C25.738 25.503 25.8554 25.4151 25.8143 25.2746Z" fill="#27304C"/>
<path d="M7.04663 38.0729C7.12884 38.1022 7.29326 38.0729 7.46356 38.0202C7.46356 37.9558 7.44594 37.8855 7.41658 37.8152C7.28152 37.8972 7.22867 38.0319 7.04663 38.0729Z" fill="#27304C"/>
<path d="M57.9648 15.399C57.6536 15.6274 57.2014 15.7446 56.6083 15.7446C56.0152 15.7446 55.5219 15.5923 55.1872 15.2936C54.8525 14.9948 54.6763 14.5731 54.6528 14.0225H52.304C52.3157 14.7898 52.4977 15.4517 52.8618 16.0199C53.22 16.588 53.7309 17.0215 54.3769 17.3261C55.0287 17.6306 55.7803 17.7829 56.6318 17.7829C57.4833 17.7829 58.1938 17.6365 58.8163 17.3495C59.4387 17.0625 59.9202 16.67 60.2608 16.1722C60.6014 15.6743 60.7717 15.1295 60.7717 14.5262C60.7717 13.7531 60.6014 13.1263 60.2608 12.6519C59.9202 12.1774 59.5151 11.8201 59.0394 11.5858C58.5638 11.3515 57.9472 11.1114 57.1955 10.8595C56.6788 10.6955 56.2736 10.5491 55.9741 10.4261C55.6746 10.3031 55.428 10.1332 55.2342 9.9282C55.0404 9.72319 54.9465 9.46547 54.9465 9.16089C54.9465 8.79773 55.0874 8.51657 55.3751 8.29985C55.6629 8.08899 56.0504 7.98355 56.5378 7.98355C57.0839 7.98355 57.5009 8.12413 57.7769 8.39943C58.0587 8.68058 58.2055 9.03788 58.229 9.47133H60.5779C60.5662 8.73916 60.3724 8.10656 60.0024 7.57354C59.6325 7.04052 59.1392 6.6305 58.5344 6.3552C57.9296 6.07405 57.2719 5.93933 56.5731 5.93933C55.8097 5.93933 55.1226 6.07405 54.5119 6.34935C53.9012 6.62464 53.4373 6.99952 53.1026 7.48568C52.7679 7.97184 52.6034 8.51658 52.6034 9.11403C52.6034 9.87549 52.7737 10.4964 53.1143 10.965C53.4549 11.4335 53.8601 11.785 54.3299 12.0193C54.7997 12.2536 55.4162 12.4937 56.1679 12.7456C56.7023 12.9213 57.1192 13.0678 57.4069 13.1966C57.6947 13.3255 57.9413 13.4895 58.1351 13.6886C58.3347 13.8878 58.4287 14.1514 58.4287 14.4677C58.4287 14.8601 58.2701 15.1706 57.9589 15.399H57.9648Z" fill="#27304C"/>
<path d="M65.1876 12.7632H70.0322V17.5897H72.3283V6.13269H70.0322V10.6312H65.1876V6.13269H62.8916V17.5897H65.1876V12.7632Z" fill="#27304C"/>
<path d="M77.443 17.5897H79.739V12.9565L83.4796 6.13269H80.9193L78.6233 10.5843L76.3272 6.13269H73.72L77.443 12.9565V17.5897Z" fill="#27304C"/>
<path d="M97.6846 17.5897L96.1108 6.13269H94.2376L90.7906 13.9581L87.326 6.13269H85.4234L83.8496 17.5897H86.1457L87.0676 10.6019L90.1681 17.5897H91.3661L94.449 10.6312L95.3709 17.5897H97.6846Z" fill="#27304C"/>
<path d="M106.933 16.6584C107.661 16.0375 108.025 15.2175 108.025 14.2042C108.025 13.5481 107.849 12.98 107.491 12.4997C107.133 12.0194 106.651 11.6679 106.041 11.4512C106.481 11.2462 106.839 10.9357 107.115 10.5374C107.397 10.1333 107.532 9.68812 107.532 9.1961C107.532 8.25892 107.18 7.51503 106.463 6.96444C105.747 6.41385 104.766 6.13855 103.51 6.13855H99.8513V17.5956H103.774C105.154 17.5956 106.205 17.2851 106.933 16.6642V16.6584ZM102.147 8.09491H103.492C104.038 8.09491 104.461 8.21792 104.766 8.46978C105.066 8.72165 105.219 9.04381 105.219 9.43625C105.219 9.8287 105.066 10.1684 104.766 10.4203C104.467 10.6722 104.044 10.7952 103.492 10.7952H102.147V8.09491ZM102.147 12.6812H103.821C104.414 12.6812 104.866 12.8218 105.189 13.0971C105.512 13.3724 105.671 13.7238 105.671 14.1514C105.671 14.579 105.512 14.9188 105.189 15.1999C104.866 15.4811 104.408 15.6275 103.821 15.6275H102.147V12.6812Z" fill="#27304C"/>
<path d="M117.039 17.2031C117.744 16.8165 118.29 16.2718 118.672 15.5689C119.053 14.866 119.247 14.0577 119.247 13.1557V6.13269H116.951V13.0268C116.951 13.8117 116.746 14.4502 116.335 14.9363C115.924 15.4225 115.336 15.6626 114.573 15.6626C113.81 15.6626 113.234 15.4225 112.823 14.9363C112.412 14.4502 112.206 13.8117 112.206 13.0268V6.13269H109.91V13.1557C109.91 14.0636 110.098 14.866 110.474 15.5689C110.85 16.2718 111.396 16.8165 112.101 17.2031C112.805 17.5897 113.628 17.783 114.573 17.783C115.518 17.783 116.335 17.5897 117.045 17.2031H117.039Z" fill="#27304C"/>
<path d="M128.502 15.4635H124.168V6.13269H121.872V17.5897H128.502V15.4635Z" fill="#27304C"/>
<path d="M132.765 15.1999H137.363L138.232 17.5897H140.693L136.212 6.13269H133.946L129.465 17.5897H131.896L132.765 15.1999ZM135.079 8.83294L136.653 13.0737H133.499L135.073 8.83294H135.079Z" fill="#27304C"/>
<path d="M144.416 12.3356L148.685 17.5897H151.592L146.682 11.6503L151.21 6.13269H148.491L144.416 11.1876V6.13269H142.12V17.5897H144.416V12.3356Z" fill="#27304C"/>
<path d="M63.244 21.0983L59.1393 30.2826L55.0405 21.0983H54.1185L52.7268 32.5553H54.007L54.9876 24.0621L58.7987 32.5553H59.4505L63.2264 24.109L64.2129 32.5553H65.5224L64.1307 21.0983H63.244Z" fill="#27304C"/>
<path d="M73.4498 24.9232C72.8098 24.56 72.1051 24.3726 71.3417 24.3726C70.5783 24.3726 69.8737 24.5541 69.2336 24.9232C68.5935 25.2863 68.0826 25.79 67.7068 26.4285C67.331 27.0669 67.1431 27.7698 67.1431 28.5489C67.1431 29.3279 67.331 30.0308 67.7068 30.6692C68.0826 31.3077 68.5935 31.8114 69.2336 32.1746C69.8737 32.5377 70.5783 32.7252 71.3417 32.7252C72.1051 32.7252 72.8098 32.5436 73.4498 32.1746C74.0899 31.8056 74.6008 31.3077 74.9766 30.6692C75.3524 30.0308 75.5404 29.322 75.5404 28.5489C75.5404 27.7757 75.3524 27.0669 74.9766 26.4285C74.6008 25.79 74.0899 25.2863 73.4498 24.9232ZM73.8726 30.0835C73.6084 30.5404 73.2561 30.9035 72.8156 31.173C72.3752 31.4424 71.882 31.5771 71.3476 31.5771C70.8132 31.5771 70.3199 31.4424 69.8795 31.173C69.4391 30.9035 69.0809 30.5404 68.8225 30.0835C68.5583 29.6266 68.4291 29.1112 68.4291 28.543C68.4291 27.9748 68.5583 27.4594 68.8225 27.0025C69.0868 26.5456 69.4391 26.1825 69.8795 25.913C70.3199 25.6436 70.8132 25.5089 71.3476 25.5089C71.882 25.5089 72.3752 25.6436 72.8156 25.913C73.2561 26.1825 73.6084 26.5398 73.8726 27.0025C74.1369 27.4594 74.2661 27.9748 74.2661 28.543C74.2661 29.1112 74.1369 29.6208 73.8726 30.0835Z" fill="#27304C"/>
<path d="M82.9218 29.199C82.9218 29.896 82.7163 30.47 82.2993 30.9093C81.8824 31.3486 81.3363 31.5712 80.6551 31.5712C79.9739 31.5712 79.4278 31.3486 79.0168 30.9093C78.6057 30.47 78.3943 29.896 78.3943 29.199V24.5306H77.1611V29.199C77.1611 29.8726 77.3079 30.4817 77.5957 31.0148C77.8834 31.5478 78.2945 31.9695 78.8289 32.2682C79.3574 32.567 79.9681 32.7192 80.661 32.7192C81.3539 32.7192 81.9587 32.567 82.4931 32.2682C83.0216 31.9695 83.4327 31.5478 83.7263 31.0148C84.014 30.4817 84.1608 29.8726 84.1608 29.199V24.5306H82.9335V29.199H82.9218Z" fill="#27304C"/>
<path d="M91.8475 24.8411C91.3483 24.5307 90.7787 24.3726 90.1328 24.3726C89.6278 24.3726 89.1639 24.478 88.7293 24.683C88.2948 24.888 87.9189 25.1984 87.5901 25.5967V24.5307H86.3569V32.5553H87.5901V27.887C87.5901 27.4301 87.6958 27.0201 87.9131 26.6569C88.1245 26.2938 88.4122 26.0126 88.7763 25.8135C89.1404 25.6085 89.5338 25.5089 89.9742 25.5089C90.6613 25.5089 91.2074 25.7256 91.6008 26.1649C91.9943 26.6042 92.1939 27.1724 92.1939 27.887V32.5553H93.4271V27.887C93.4271 27.231 93.292 26.6394 93.016 26.1005C92.74 25.5675 92.3583 25.1399 91.8592 24.8294L91.8475 24.8411Z" fill="#27304C"/>
<path d="M97.115 22.4103H95.8818V24.5365H94.5664V25.6494H95.8818V30.183C95.8818 30.88 96.1108 31.4541 96.563 31.8934C97.0151 32.3327 97.6082 32.5553 98.3423 32.5553H99.1644V31.4072H98.4245C98.0193 31.4072 97.6963 31.2901 97.4614 31.0558C97.2265 30.8215 97.1091 30.5052 97.1091 30.101V25.6494H99.1585V24.5365H97.1091V22.4103H97.115Z" fill="#27304C"/>
<path d="M106.974 25.7666C106.634 25.339 106.211 24.9993 105.694 24.7533C105.178 24.5014 104.62 24.3784 104.021 24.3784C103.287 24.3784 102.606 24.56 101.971 24.929C101.337 25.2922 100.832 25.7959 100.462 26.4344C100.092 27.0728 99.9043 27.7757 99.9043 28.5547C99.9043 29.3338 100.092 30.0366 100.462 30.6751C100.832 31.3135 101.337 31.8173 101.971 32.1804C102.606 32.5436 103.293 32.731 104.021 32.731C104.626 32.731 105.183 32.608 105.694 32.3562C106.211 32.1043 106.634 31.7646 106.974 31.3428V32.567H108.202V24.5483H106.974V25.7783V25.7666ZM106.663 30.0835C106.399 30.5404 106.047 30.9035 105.594 31.173C105.142 31.4424 104.655 31.5771 104.115 31.5771C103.574 31.5771 103.087 31.4424 102.641 31.173C102.194 30.9035 101.836 30.5404 101.572 30.0835C101.308 29.6266 101.179 29.1112 101.179 28.543C101.179 27.9748 101.308 27.4594 101.572 27.0025C101.836 26.5456 102.189 26.1825 102.641 25.9131C103.087 25.6436 103.58 25.5089 104.115 25.5089C104.649 25.5089 105.142 25.6436 105.594 25.9131C106.041 26.1825 106.399 26.5398 106.663 27.0025C106.927 27.4594 107.057 27.9748 107.057 28.543C107.057 29.1112 106.927 29.6208 106.663 30.0835Z" fill="#27304C"/>
<path d="M111.813 21.4907H110.386V22.9961H111.813V21.4907Z" fill="#27304C"/>
<path d="M111.713 24.5365H110.48V32.5552H111.713V24.5365Z" fill="#27304C"/>
<path d="M119.482 24.8411C118.983 24.5307 118.413 24.3726 117.768 24.3726C117.263 24.3726 116.799 24.478 116.364 24.683C115.93 24.888 115.554 25.1984 115.225 25.5967V24.5307H113.992V32.5553H115.225V27.887C115.225 27.4301 115.331 27.0201 115.542 26.6569C115.753 26.2938 116.041 26.0126 116.405 25.8135C116.763 25.6085 117.163 25.5089 117.603 25.5089C118.29 25.5089 118.83 25.7256 119.23 26.1649C119.623 26.6042 119.823 27.1724 119.823 27.887V32.5553H121.056V27.887C121.056 27.231 120.921 26.6394 120.645 26.1005C120.369 25.5616 119.987 25.1399 119.488 24.8294L119.482 24.8411Z" fill="#27304C"/>
<path d="M134.662 26.4753C135.179 25.8896 135.443 25.1926 135.443 24.3725C135.443 23.7517 135.284 23.1893 134.973 22.6973C134.662 22.1995 134.222 21.8129 133.658 21.5259C133.094 21.2447 132.442 21.0983 131.714 21.0983H128.349V32.5553H129.665V27.6468H131.009L135.079 32.5553H136.717L132.566 27.5765C133.441 27.4242 134.139 27.0552 134.656 26.4695L134.662 26.4753ZM129.665 26.4168V22.3225H131.714C132.436 22.3225 133.012 22.5099 133.441 22.8789C133.869 23.2479 134.081 23.7458 134.081 24.3667C134.081 24.9876 133.869 25.4854 133.441 25.8545C133.012 26.2235 132.436 26.4109 131.714 26.4109H129.665V26.4168Z" fill="#27304C"/>
<path d="M143.212 24.8704C142.607 24.5366 141.938 24.3726 141.204 24.3726C140.47 24.3726 139.759 24.5541 139.143 24.9232C138.526 25.2863 138.039 25.79 137.692 26.4226C137.34 27.0552 137.169 27.764 137.169 28.5489C137.169 29.3338 137.346 30.0425 137.692 30.6751C138.044 31.3077 138.526 31.8056 139.143 32.1746C139.759 32.5377 140.446 32.7252 141.204 32.7252C142.102 32.7252 142.871 32.5084 143.517 32.0691C144.163 31.6298 144.651 31.0031 144.979 30.1889H143.664C143.159 31.1144 142.343 31.583 141.204 31.583C140.429 31.583 139.794 31.3487 139.307 30.8742C138.82 30.3998 138.538 29.7613 138.461 28.9647H145.144C145.167 28.8242 145.173 28.6192 145.173 28.3556C145.173 27.5824 144.997 26.8912 144.651 26.2821C144.298 25.6788 143.823 25.2102 143.212 24.8763V24.8704ZM138.514 27.8401C138.637 27.1197 138.931 26.5515 139.407 26.1356C139.882 25.7198 140.481 25.5147 141.204 25.5147C141.926 25.5147 142.519 25.7256 143.018 26.1532C143.517 26.5808 143.805 27.1431 143.881 27.8401H138.514Z" fill="#27304C"/>
<path d="M151.263 28.3907C150.899 28.2443 150.417 28.1037 149.83 27.9748C149.384 27.8636 149.031 27.7698 148.785 27.682C148.538 27.5941 148.333 27.4711 148.162 27.3071C147.992 27.1431 147.91 26.9322 147.91 26.6686C147.91 26.3172 148.062 26.0419 148.362 25.831C148.661 25.626 149.031 25.5206 149.472 25.5206C149.953 25.5206 150.353 25.6436 150.67 25.8955C150.987 26.1473 151.157 26.4578 151.181 26.8268H152.414C152.402 26.3699 152.267 25.954 152.003 25.585C151.738 25.216 151.392 24.9173 150.963 24.7006C150.529 24.4838 150.059 24.3726 149.542 24.3726C149.026 24.3726 148.532 24.4721 148.092 24.6771C147.651 24.8763 147.299 25.1516 147.035 25.503C146.771 25.8545 146.641 26.2411 146.641 26.6686C146.641 27.19 146.765 27.6058 147.017 27.9104C147.27 28.215 147.569 28.4376 147.922 28.5723C148.274 28.707 148.744 28.8417 149.331 28.9706C149.801 29.0819 150.165 29.1756 150.423 29.2635C150.681 29.3513 150.899 29.486 151.069 29.6676C151.245 29.8492 151.333 30.0835 151.333 30.3764C151.333 30.7571 151.169 31.0558 150.846 31.2608C150.523 31.4717 150.118 31.5713 149.624 31.5713C149.031 31.5713 148.562 31.4424 148.215 31.1847C147.863 30.927 147.675 30.5931 147.64 30.1772H146.406C146.43 30.6692 146.577 31.1027 146.853 31.4834C147.129 31.8641 147.499 32.1687 147.974 32.3854C148.45 32.6022 148.99 32.7135 149.589 32.7135C150.441 32.7135 151.157 32.4967 151.738 32.0691C152.32 31.6416 152.608 31.0734 152.608 30.3764C152.608 29.8316 152.478 29.3982 152.214 29.0819C151.95 28.7656 151.639 28.5313 151.269 28.3849L151.263 28.3907Z" fill="#27304C"/>
<path d="M160.218 24.9232C159.578 24.56 158.873 24.3726 158.11 24.3726C157.346 24.3726 156.642 24.5541 156.002 24.9232C155.362 25.2863 154.851 25.79 154.475 26.4285C154.099 27.0669 153.911 27.7698 153.911 28.5489C153.911 29.3279 154.099 30.0308 154.475 30.6692C154.851 31.3077 155.362 31.8114 156.002 32.1746C156.642 32.5377 157.346 32.7252 158.11 32.7252C158.873 32.7252 159.578 32.5436 160.218 32.1746C160.858 31.8056 161.369 31.3077 161.745 30.6692C162.121 30.0308 162.308 29.322 162.308 28.5489C162.308 27.7757 162.121 27.0669 161.745 26.4285C161.369 25.79 160.858 25.2863 160.218 24.9232ZM160.635 30.0835C160.371 30.5404 160.018 30.9035 159.578 31.173C159.137 31.4424 158.644 31.5771 158.11 31.5771C157.575 31.5771 157.082 31.4424 156.642 31.173C156.201 30.9035 155.843 30.5404 155.585 30.0835C155.32 29.6266 155.191 29.1112 155.191 28.543C155.191 27.9748 155.32 27.4594 155.585 27.0025C155.849 26.5456 156.201 26.1825 156.642 25.913C157.082 25.6436 157.575 25.5089 158.11 25.5089C158.644 25.5089 159.137 25.6436 159.578 25.913C160.018 26.1825 160.371 26.5398 160.635 27.0025C160.899 27.4594 161.028 27.9748 161.028 28.543C161.028 29.1112 160.899 29.6208 160.635 30.0835Z" fill="#27304C"/>
<path d="M166.431 24.765C165.996 24.9759 165.62 25.2805 165.292 25.6846V24.5366H164.058V32.5553H165.292V27.9749C165.292 27.518 165.397 27.108 165.609 26.7448C165.82 26.3817 166.108 26.1005 166.472 25.9014C166.836 25.6964 167.229 25.5968 167.67 25.5968H168.492V24.4487H167.834C167.329 24.4487 166.865 24.5542 166.431 24.7592V24.765Z" fill="#27304C"/>
<path d="M174 25.6494V24.5365H171.951V22.4103H170.717V24.5365H169.408V25.6494H170.717V30.183C170.717 30.88 170.946 31.4541 171.399 31.8934C171.851 32.3327 172.444 32.5553 173.178 32.5553H174V31.4072H173.26C172.855 31.4072 172.538 31.2901 172.303 31.0558C172.068 30.8215 171.951 30.5052 171.951 30.101V25.6494H174Z" fill="#27304C"/>
</g>
<defs>
<clipPath id="clip0_2052_5899">
<rect width="174" height="40" fill="white"/>
</clipPath>
</defs>
</svg>
