<svg xmlns="http://www.w3.org/2000/svg" viewBox="0 0 1200 600">
<defs>
<linearGradient id="es" x1="0" y1="0" x2="1" y2="1">
<stop offset="0" stop-color="#10433B"/><stop offset="1" stop-color="#1C6B5C"/>
</linearGradient>
<linearGradient id="esGold" x1="0" y1="0" x2="1" y2="0">
<stop offset="0" stop-color="#bda57e"/><stop offset="1" stop-color="#d4bc96"/>
</linearGradient>
</defs>
<rect width="1200" height="600" fill="url(#es)"/>
<g opacity="0.12" stroke="#fff" stroke-width="2" fill="none">
<rect x="760" y="120" width="120" height="120"/><rect x="890" y="120" width="120" height="120"/><rect x="1020" y="120" width="120" height="120"/>
<rect x="760" y="250" width="120" height="120"/><rect x="890" y="250" width="120" height="120"/><rect x="1020" y="250" width="120" height="120"/>
<rect x="760" y="380" width="120" height="120"/><rect x="890" y="380" width="120" height="120"/><rect x="1020" y="380" width="120" height="120"/>
</g>
<g opacity="0.07" fill="#fff"><path d="M0 600 L300 350 L600 600 Z"/></g>
<text x="80" y="300" font-family="Arial,sans-serif" font-weight="800" font-size="76" fill="#fff" letter-spacing="-1">EXTRA SPACE</text>
<rect x="82" y="330" width="120" height="6" fill="url(#esGold)"/>
<text x="84" y="380" font-family="Arial,sans-serif" font-weight="400" font-size="26" fill="#CFE6DF">Smart storage infrastructure · 24/7 · 2500+ m²</text>
</svg>